# xmcd
#
# Track frame offsets:
#	150
#	10993
#	28476
#	44703
#	64389
#	80566
#	101756
#	119652
#	135037
#	152072
#
# Disc length: 2341 seconds
#
# Revision: 1
# Processed by: cddbd v1.5.2PL0 Copyright (c) Steve Scherf et al.
# Submitted via: EasyCDDAExtractor 11.9.9.666
#
DISCID=8c09230a
DTITLE=Dstation - อุดมการณ์คนเสื้อแดง
DYEAR=2009
DGENRE=Country
TTITLE0=อุดมการณ์คนเสื้อแดง
TTITLE1=เพลงดอกไม้
TTITLE2=พระยาพิชัย
TTITLE3=คนมันชั่ว
TTITLE4=หัวใจสีแดง
TTITLE5=ฝั่งน้ำน่าน
TTITLE6=เสรีชน
TTITLE7=สาวเสื้อแดง
TTITLE8=หัวใจผูกพันธ์
TTITLE9=วีระมาแล้ว
EXTD=
EXTT0=
EXTT1=
EXTT2=
EXTT3=
EXTT4=
EXTT5=
EXTT6=
EXTT7=
EXTT8=
EXTT9=
PLAYORDER=
